 http://www.imdb.com/title/tt1942683/


Some video metadata:

Input #0, avi, from 'The Amazing World of Gumball - 101 [The Responsible - The Mystery].avi':
  Metadata:
    encoder         : VirtualDubMod 1.5.4.1 (build 2178/release)
  Duration: 00:23:03.36, start: 0.000000, bitrate: 1061 kb/s
    Stream #0.0: Video: mpeg4, yuv420p, 640x480 [PAR 1:1 DAR 4:3], 25 tbr, 25 tbn, 25 tbc
    Stream #0.1: Audio: mp3, 48000 Hz, stereo, s16, 116 kb/s
